<svg width="6986" height="6986" xmlns="http://www.w3.org/2000/svg"><defs><style/></defs><path fill="none" id="canvas_background" d="M-1-1h582v402H-1z"/><g><g id="Layer_x0020_1"><path fill="#fff" id="svg_1" d="M3412-12c-871 0-994 5-1356 21-372 17-627 76-849 163-230 89-425 209-620 404s-314 390-404 620c-86 223-146 477-163 849C3 2418-1 2537-1 3488c0 950 4 1069 21 1443 17 372 76 627 163 849 89 230 209 425 404 620s390 314 620 404c223 86 477 146 849 163 373 17 492 21 1443 21 950 0 1069-4 1443-21 372-17 627-76 849-163 230-89 425-209 620-404s314-390 404-620c86-223 146-477 163-849 16-362 21-485 21-1356v-173c0-871-5-994-21-1356-17-372-76-627-163-849-89-230-209-425-404-620s-390-314-620-404c-223-86-477-146-849-163-362-16-485-21-1356-21h-173l-1-1zm88 631c934 0 1045 4 1414 20 341 16 526 73 650 120 163 63 280 139 402 262 122 122 198 239 262 402 48 123 105 309 120 650 17 369 20 480 20 1414s-4 1045-20 1414c-16 341-73 526-120 650-63 163-139 280-262 402-122 122-239 198-402 262-123 48-309 105-650 120-369 17-480 20-1414 20s-1045-4-1414-20c-341-16-526-73-650-120-163-63-280-139-402-262-122-122-198-239-262-402-48-123-105-309-120-650-17-369-20-480-20-1414s4-1045 20-1414c16-341 73-526 120-650 63-163 139-280 262-402 122-122 239-198 402-262 123-48 309-105 650-120 369-17 480-20 1414-20z" class="fil0"/><path fill="#fff" id="svg_2" d="M3499 4654c-644 0-1166-522-1166-1166s522-1166 1166-1166 1166 522 1166 1166-522 1166-1166 1166zm0-2963c-992 0-1797 804-1797 1797 0 992 804 1797 1797 1797 992 0 1797-804 1797-1797 0-992-804-1797-1797-1797z" class="fil0"/><path fill="#fff" id="svg_3" d="M5786 1620c0 232-188 420-420 420s-420-188-420-420 188-420 420-420 420 188 420 420z" class="fil0"/></g></g></svg>