<?xml version="1.0" encoding="UTF-8"?>
<svg width="19px" height="19px" viewBox="0 0 19 19" version="1.1" xmlns="http://www.w3.org/2000/svg" xmlns:xlink="http://www.w3.org/1999/xlink">
    <!-- Generator: Sketch 50.2 (55047) - http://www.bohemiancoding.com/sketch -->
    <title>azet_rgb_</title>
    <desc>Created with Sketch.</desc>
    <defs></defs>
    <g id="azet-button" stroke="none" stroke-width="1" fill="none" fill-rule="evenodd">
        <g id="azet_button" transform="translate(-52.000000, -42.000000)" fill-rule="nonzero">
            <g id="Group-Copy-20" transform="translate(42.000000, 34.000000)">
                <g id="Page-1">
                    <g id="Group-2">
                        <g id="azet_rgb_" transform="translate(10.340000, 8.000000)">
                            <path d="M6.58811018,10.6287129 C6.77084609,7.65643564 9.52150231,6.77227723 12.2048348,6.77227723 C14.5900192,6.77227723 17.4464699,7.28019802 17.4464699,10.0455446 L17.4464699,16.0371287 C17.4464699,17.0811881 17.561882,18.1252475 17.8600301,18.5955446 L14.5323131,18.5955446 C14.416901,18.2381188 14.3207242,17.8618812 14.3014888,17.4762376 C13.2723972,18.529703 11.7431862,18.9059406 10.281299,18.9059406 C8.01152669,18.9059406 6.2130207,17.8148515 6.2130207,15.4539604 C6.2130207,12.8485149 8.25196867,12.2277228 10.281299,11.9549505 C12.2913939,11.6633663 14.1572236,11.7292079 14.1572236,10.4405941 C14.1572236,9.08613861 13.185838,8.87920792 12.0317166,8.87920792 C10.7814183,8.87920792 9.97353323,9.36831683 9.85812108,10.6193069 L6.58811018,10.6193069 L6.58811018,10.6287129 Z M14.1668413,12.9613861 C13.6090159,13.4316832 12.4548944,13.450495 11.4450381,13.6292079 C10.4255641,13.8267327 9.50226695,14.1653465 9.50226695,15.3222772 C9.50226695,16.5074257 10.4544172,16.789604 11.5123619,16.789604 C14.0802822,16.789604 14.1668413,14.8331683 14.1668413,14.1371287 L14.1668413,12.9613861 Z" id="Shape" fill="#147CC1"></path>
                            <path d="M13.695575,0.0940594059 C13.5320745,0.0940594059 13.3781916,0.122277228 13.2146911,0.169306931 C13.0511905,0.206930693 12.9069254,0.282178218 12.7626602,0.357425743 C12.7626602,0.357425743 12.7338071,0.376237624 12.7338071,0.376237624 L12.5029828,0.526732673 C12.2336878,0.743069307 12.0317166,0.997029703 11.9163044,1.28861386 C11.8489807,1.44851485 11.8105099,1.60841584 11.7912746,1.74950495 C11.7912746,1.74950495 11.7816569,1.84356436 11.7816569,1.84356436 L11.7720392,1.98465347 L11.7720392,4.92871287 L11.7720392,5.40841584 L12.2048348,5.3990099 C12.8107486,5.3990099 13.3878093,5.42722772 13.9167817,5.49306931 L14.2726358,4.91930693 L14.9074026,3.85643564 L15.3113451,3.17920792 C15.3113451,3.17920792 15.5517871,2.75594059 15.5517871,2.75594059 C15.6094932,2.63366337 15.6479639,2.49257426 15.6864346,2.2950495 C15.7249053,2.14455446 15.7249053,1.97524752 15.70567,1.82475248 C15.6864346,1.63663366 15.6479639,1.48613861 15.5998755,1.35445545 C15.5421694,1.21336634 15.465228,1.06287129 15.3786689,0.931188119 C15.2824921,0.79009901 15.1766976,0.667821782 15.0516678,0.564356436 C14.9362556,0.460891089 14.8016081,0.376237624 14.6284899,0.291584158 C14.3303419,0.15049505 13.9937231,0.0846534653 13.695575,0.0940594059 Z" id="Shape" fill="#F8962D"></path>
                            <path d="M8.66552887,0.225742574 C8.33852778,0.244554455 8.01152669,0.338613861 7.74223168,0.498514851 C7.60758417,0.583168317 7.48255434,0.677227723 7.36714219,0.79009901 C7.25173004,0.902970297 7.15555325,1.04405941 7.06899414,1.17574257 C7.06899414,1.17574257 7.0401411,1.22277228 7.0401411,1.22277228 L6.93434663,1.44851485 C6.84778752,1.67425743 6.79969912,1.9 6.79969912,2.12574257 C6.79969912,2.21039604 6.8093168,2.30445545 6.81893448,2.38910891 C6.83816984,2.5019802 6.87664056,2.68069307 6.94396431,2.83118812 C6.94396431,2.83118812 6.94396431,2.83118812 6.94396431,2.83118812 L6.95358199,2.85940594 C6.96319967,2.87821782 6.97281735,2.90643564 6.97281735,2.90643564 L7.04975878,3.05693069 C7.04975878,3.05693069 7.34790683,3.55544554 7.34790683,3.55544554 L7.87687918,4.43960396 C7.87687918,4.43960396 8.57896976,5.60594059 8.57896976,5.60594059 L8.77132334,5.92574257 L8.78094102,5.91633663 C9.36761944,5.70940594 10.0216216,5.55891089 10.7140945,5.47425743 L10.7333299,5.47425743 L10.7333299,2.38910891 C10.7333299,2.38910891 10.7333299,2.04108911 10.7237122,1.9 C10.7140945,1.75891089 10.6660061,1.60841584 10.5986824,1.43910891 C10.550594,1.28861386 10.4640349,1.13811881 10.3774757,1.02524752 C10.2620636,0.874752475 10.1562691,0.761881188 10.040857,0.667821782 C9.90620947,0.564356436 9.77156197,0.47029703 9.62729678,0.404455446 C9.46379623,0.329207921 9.30991337,0.272772277 9.1560305,0.244554455 C9.03100067,0.225742574 8.85788245,0.206930693 8.66552887,0.225742574 Z" id="Shape" fill="#6EBE47"></path>
                            <path d="M6.89587591,4.85346535 L6.36690356,3.96930693 L6.12646159,3.57425743 L6.06875551,3.47079208 C6.0302848,3.4049505 5.9821964,3.34851485 5.934108,3.29207921 C5.83793121,3.16980198 5.71290139,3.05693069 5.58787156,2.96287129 C5.32819422,2.75594059 5.02042849,2.63366337 4.6934274,2.57722772 C4.59725061,2.56782178 4.48183846,2.55841584 4.38566167,2.55841584 C4.22216112,2.55841584 4.05866058,2.56782178 3.89516004,2.61485149 C3.74127717,2.65247525 3.59701198,2.70891089 3.44312912,2.78415842 C3.16421642,2.92524752 2.91415677,3.1509901 2.75065622,3.41435644 C2.66409711,3.5460396 2.577538,3.68712871 2.5294496,3.8470297 C2.48136121,3.99752475 2.45250817,4.15742574 2.44289049,4.31732673 C2.43327281,4.47722772 2.44289049,4.63712871 2.46212585,4.78762376 C2.49097889,4.94752475 2.53906728,5.0980198 2.60639104,5.23910891 C2.67371479,5.38019802 2.7602739,5.51188119 2.86606837,5.63415842 C2.97186284,5.7470297 3.08727499,5.85990099 3.21230482,5.9539604 C3.34695233,6.0480198 3.49121751,6.12326733 3.6354827,6.20792079 L4.33757327,6.6029703 L5.44360637,7.22376238 L6.2130207,7.6470297 C6.6265809,7.13910891 7.15555325,6.70643564 7.78070239,6.36782178 L7.59796649,6.01980198 L6.89587591,4.85346535 Z" id="Shape" fill="#147CC1"></path>
                            <path d="M5.12622296,10.5440594 C5.17431136,9.81039604 5.34742958,9.1519802 5.62634227,8.55940594 L5.55901852,8.52178218 L4.34719095,7.8539604 L3.43351144,7.33663366 L3.01995124,7.11089109 L2.91415677,7.05445545 C2.84683301,7.01683168 2.77950926,6.98861386 2.70256783,6.96039604 C2.55830264,6.89455446 2.3948021,6.85693069 2.23130155,6.83811881 C1.90430046,6.79108911 1.57729937,6.82871287 1.25991596,6.94158416 C1.16373917,6.97920792 1.06756238,7.02623762 0.981003268,7.07326733 C0.846355761,7.14851485 0.702090574,7.24257426 0.586678425,7.35544554 C0.471266276,7.46831683 0.375089485,7.58118812 0.288530373,7.71287129 C0.125029828,7.97623762 0.0288530373,8.2960396 0.0096176791,8.58762376 C3.40005801e-16,8.74752475 0.0096176791,8.91683168 0.0384707164,9.06732673 C0.0673237537,9.22722772 0.125029828,9.36831683 0.201971261,9.51881188 C0.269295015,9.65990099 0.365471806,9.79158416 0.471266276,9.91386139 C0.577060746,10.0361386 0.702090574,10.139604 0.836738082,10.2336634 C0.96176791,10.3183168 1.11565078,10.3935644 1.25991596,10.4405941 C1.41379883,10.4876238 1.56768169,10.5346535 1.73118224,10.5534653 C1.89468278,10.5722772 2.06780101,10.5628713 2.23130155,10.5628713 L5.12622296,10.5628713 L5.12622296,10.5440594 Z" id="Shape" fill="#7F4C9E"></path>
                        </g>
                    </g>
                </g>
            </g>
        </g>
    </g>
</svg>