<svg xmlns="http://www.w3.org/2000/svg" width="929" height="1000"><path fill="#137CC1" d="M405.176 331.272l-10.058-17.211-36.483-62.059-27.541-46.912-12.408-20.852-3.228-5.698c-1.988-3.471-4.474-6.47-6.955-9.676-4.961-6.711-11.406-12.663-17.879-17.644-13.399-10.91-29.279-17.355-46.405-20.345-5.216-.748-10.913-.991-16.135-1.232-8.427.241-17.115.75-25.304 2.976-8.201 1.982-15.637 4.958-23.344 8.925-14.391 7.691-27.297 19.618-36.234 33.261-4.712 6.94-8.926 14.657-11.655 22.846-2.492 8.186-3.981 16.375-4.474 24.805-.742 8.441-.249 16.885 1.246 25.072 1.484 8.441 4.23 16.39 7.691 24.069 3.228 7.461 8.2 14.646 13.648 20.85 5.471 6.218 11.406 12.156 18.123 17.14 6.955 4.961 14.646 9.163 22.087 13.388l36.727 20.853 57.33 32.773 39.96 22.716c21.543-27.009 48.801-49.815 81.291-68.045z"/><path fill="#7F4C9E" d="M292.861 449.183l-3.715-2.102-63.033-35.735-47.663-27.048-21.339-12.17-5.72-3.228c-3.472-1.988-7.181-3.472-10.919-4.972-7.679-3.46-16.135-5.454-24.567-6.688-17.126-2.492-33.997-.51-50.398 5.454-4.956 1.988-9.917 4.48-14.634 6.943-7.198 4.23-14.391 8.937-20.343 14.9-5.963 5.963-11.162 12.153-15.636 19.108-8.699 13.898-13.66 30.786-14.657 46.666-.487 8.682-.249 17.375 1.75 25.564 1.728 8.427 4.718 16.124 8.433 23.826a106.316 106.316 0 0013.909 21.085c5.697 6.456 11.91 11.921 19.108 17.148 6.457 4.718 14.391 8.682 22.07 11.151 7.946 2.707 16.157 4.983 24.59 5.975 8.682.991 17.38.725 26.051.725h150.577l.085-1.234c2.406-38.79 11.292-74.011 26.051-105.368z"/><path fill="#6EBE47" d="M557.938 227.669V120.958c0-8.696 0-17.137-.736-25.822-.997-8.186-3.488-16.135-6.207-24.081-2.491-7.45-6.456-15.384-11.417-21.843-5.211-6.94-10.67-13.145-17.363-18.601-6.463-5.454-13.672-10.171-21.363-13.666-7.679-3.712-15.625-6.7-24.08-8.43-8.427-1.985-17.363-2.226-26.051-1.741-16.135 1.002-33.261 5.963-47.414 14.404-7.181 4.463-13.388 9.433-19.346 15.385-5.969 5.949-10.681 12.904-15.132 20.099-2.492 4.717-5.227 9.435-6.966 14.393-6.207 16.135-8.189 32.766-5.697 49.662 1.484 8.164 3.472 16.616 6.7 24.066 1.727 3.715 3.228 7.438 5.216 10.91l3.217 5.468 12.403 21.09 27.314 46.904 36.489 62.059 9.564 16.401c30.452-11.043 64.172-18.978 100.87-23.514v-56.432z"/><path fill="#F8962D" d="M723.546 284.671l17.567-29.945 32.994-56.339 21.113-36.234c4.451-7.198 8.926-14.648 12.414-22.328 3.467-7.716 5.448-15.903 6.938-24.092 1.738-7.694 2.227-16.619 1.246-24.564-.991-8.43-2.475-16.642-5.465-24.587-2.968-7.935-6.943-15.374-11.661-22.328-4.718-7.195-10.171-13.643-16.645-19.363-6.434-5.697-13.638-10.171-21.589-14.15C745.824 3.557 728.46-.665 712.071.086c-8.439.241-16.391 1.486-24.579 3.724-8.189 1.974-15.88 5.708-23.315 9.665-4.719 2.987-9.192 5.72-13.417 9.191-13.399 10.922-23.82 24.324-30.016 40.204-3.002 7.691-5.466 16.132-6.468 24.081-.244 3.964-.985 7.931-.985 11.913V255.474l-.091 24.42a693.96 693.96 0 0121.43-.351c32.532 0 62.071 1.801 88.916 5.128z"/><path fill="#137CC1" d="M736.639 683.117c-28.791 25.061-88.846 26.052-141.719 35.481-52.861 10.692-101.011 28.543-101.011 90.109 0 62.795 49.384 78.177 104.488 78.177 133.519 0 138.241-104.234 138.241-140.972v-62.795zM342.511 559c9.673-157.594 152.643-204.752 292.12-204.752 123.857 0 272.77 27.059 272.77 173.983v318.426c0 55.614 5.963 111.223 21.6 136.039H755.996c-5.957-18.864-10.918-38.992-11.898-59.335-54.113 55.853-133.535 75.957-209.231 75.957-117.888 0-211.718-58.083-211.718-183.43 0-138.479 105.972-171.74 211.718-185.87 104.478-15.404 201.772-11.922 201.772-80.454 0-72.201-50.392-82.882-110.434-82.882-65.039 0-106.98 26.08-112.944 92.318h-170.75z"/></svg>